<svg width="440" height="361" viewBox="0 0 440 361" fill="none" xmlns="http://www.w3.org/2000/svg">
<g filter="url(#filter0_i_10_8)">
<path fill-rule="evenodd" clip-rule="evenodd" d="M158.309 297.724C174.324 288.197 187.015 275.826 192.611 259.765L191.264 260.043C189.835 260.336 187.749 260.758 185.124 261.274C179.876 262.305 172.471 263.712 163.849 265.212C146.609 268.212 122.451 271.588 102.943 273.089C103.183 273.008 109.15 270.985 114.189 269.585C120.155 267.927 128.671 265.478 138.869 262.313C159.265 255.982 186.383 246.788 213.279 235.332C240.181 223.874 266.832 210.165 286.312 194.812C299.887 184.114 309.912 172.672 314.173 160.688C316.729 153.498 309.054 148.566 301.985 151.441C292.376 155.349 278.535 160.725 261.602 166.601C231.227 177.141 188.018 189.7 143.717 197.952C142.255 198.224 141.643 195.895 143.052 195.42C150.249 192.994 160.548 189.438 172.952 184.918C197.761 175.877 230.988 162.98 264.665 147.556C298.345 132.129 332.457 114.182 359.047 95.0447C372.342 85.4759 383.742 75.619 392.266 65.6417C399.443 57.2412 404.564 48.7746 407.073 40.3396C407.763 38.0199 406.175 35.7132 403.788 35.3166C400.647 34.7945 396.047 34.0779 390.209 33.2997C378.533 31.743 361.909 29.9405 342.124 28.9573C302.549 26.9906 250.348 28.3033 199.798 41.4064C149.249 54.5091 100.391 79.3909 67.437 124.532C35.2004 168.69 18.1313 232.307 29.6789 323.423C30.0822 326.606 32.8764 328.967 36.0796 328.771C39.9824 328.533 45.5844 328.117 52.3757 327.411C65.9602 325.999 84.2971 323.425 103.316 318.777C122.339 314.129 142.021 307.412 158.309 297.724ZM102.943 273.089C102.94 273.09 102.938 272.885 102.937 272.72L102.936 272.517C102.937 272.534 102.938 272.66 102.94 272.79C102.941 272.938 102.943 273.089 102.943 273.089Z" fill="url(#paint0_linear_10_8)"/>
</g>
<path d="M102.943 273.089C102.94 273.09 102.938 272.885 102.937 272.72L102.936 272.517C102.936 272.516 102.936 272.516 102.936 272.517C102.937 272.534 102.938 272.66 102.94 272.79C102.941 272.938 102.942 273.09 102.943 273.089Z" fill="url(#paint1_linear_10_8)"/>
<path fill-rule="evenodd" clip-rule="evenodd" d="M17.2095 360.185C12.5708 360.45 8.48001 357.141 7.71292 352.559C-10.8669 241.57 5.6033 164.194 41.24 111.244C77.7263 57.0314 134.156 28.0846 193.121 13.5717C252.084 -0.940793 313.626 -1.03198 360.414 2.5C383.81 4.26624 403.524 6.93909 417.39 9.17054C418.012 9.27075 418.676 9.37805 419.37 9.49085L420.354 9.651C421.217 9.79175 422.118 9.93933 423.041 10.0912C433.107 11.7477 441.008 20.0471 439.771 30.1732C436.184 59.546 416.7 83.5754 396.908 100.531C385.138 110.616 373.152 118.38 364.11 123.623C363.778 123.815 363.416 124.021 363.028 124.238C362.771 124.382 362.503 124.531 362.226 124.683L361.762 124.938C354.163 129.09 349.447 136.959 348.329 145.546C343.045 186.116 315.758 211.932 288.544 227.852C273.389 236.716 258.239 242.525 246.88 246.117C241.2 247.913 236.465 249.156 233.149 249.95C231.491 250.347 230.188 250.632 229.298 250.818C228.623 250.959 228.065 251.439 227.824 252.085C212.132 294.165 181.652 318.625 155.002 332.576C141.538 339.624 129.046 343.994 119.919 346.601C97.282 353.777 62.5286 356.649 43.2847 358.24C41.3448 358.4 39.5623 358.547 37.9658 358.685C29.2483 359.435 22.1397 359.904 17.2095 360.185ZM158.309 297.724C174.324 288.197 187.015 275.826 192.611 259.765L191.264 260.043C189.835 260.336 187.749 260.758 185.125 261.274C179.876 262.305 172.471 263.712 163.849 265.212C146.609 268.212 122.451 271.588 102.943 273.089C103.183 273.008 109.15 270.985 114.189 269.585C120.155 267.927 128.671 265.478 138.869 262.313C159.265 255.982 186.383 246.788 213.279 235.332C240.181 223.874 266.832 210.165 286.313 194.812C299.887 184.114 309.912 172.672 314.173 160.688C316.73 153.498 309.054 148.566 301.985 151.441C292.376 155.349 278.535 160.725 261.602 166.601C231.227 177.141 188.018 189.7 143.717 197.952C142.255 198.224 141.643 195.895 143.052 195.42C150.25 192.994 160.548 189.438 172.952 184.918C197.761 175.877 230.988 162.98 264.665 147.556C298.345 132.129 332.458 114.182 359.047 95.0447C372.342 85.476 383.742 75.619 392.266 65.6417C399.443 57.2412 404.564 48.7747 407.073 40.3396C407.763 38.0199 406.175 35.7133 403.788 35.3167C400.647 34.7946 396.047 34.0779 390.209 33.2997C378.533 31.743 361.909 29.9406 342.124 28.9573C302.549 26.9906 250.348 28.3033 199.798 41.4064C149.249 54.5092 100.391 79.3909 67.437 124.532C35.2005 168.69 18.1314 232.307 29.679 323.423C30.0823 326.606 32.8765 328.967 36.0796 328.771C39.9824 328.533 45.5845 328.117 52.3758 327.411C65.9602 325.999 84.2971 323.425 103.316 318.777C122.339 314.129 142.022 307.412 158.309 297.724Z" fill="url(#paint2_linear_10_8)"/>
<defs>
<filter id="filter0_i_10_8" x="22.0649" y="28.2242" width="385.17" height="304.558" filterUnits="userSpaceOnUse" color-interpolation-filters="sRGB">
<feFlood flood-opacity="0" result="BackgroundImageFix"/>
<feBlend mode="normal" in="SourceGraphic" in2="BackgroundImageFix" result="shape"/>
<feColorMatrix in="SourceAlpha" type="matrix" values="0 0 0 0 0 0 0 0 0 0 0 0 0 0 0 0 0 0 127 0" result="hardAlpha"/>
<feOffset dx="-10" dy="4"/>
<feGaussianBlur stdDeviation="2"/>
<feComposite in2="hardAlpha" operator="arithmetic" k2="-1" k3="1"/>
<feColorMatrix type="matrix" values="0 0 0 0 0.266667 0 0 0 0 0.266667 0 0 0 0 0.266667 0 0 0 0.55 0"/>
<feBlend mode="normal" in2="shape" result="effect1_innerShadow_10_8"/>
</filter>
<linearGradient id="paint0_linear_10_8" x1="294.5" y1="56.5" x2="129" y2="322.5" gradientUnits="userSpaceOnUse">
<stop stop-color="#FF017B"/>
<stop offset="1" stop-color="#1D193D" stop-opacity="0"/>
</linearGradient>
<linearGradient id="paint1_linear_10_8" x1="219.771" y1="0.999569" x2="4.96805e-05" y2="368.117" gradientUnits="userSpaceOnUse">
<stop stop-color="#FF007A"/>
<stop offset="0.802083" stop-color="#0F074A"/>
</linearGradient>
<linearGradient id="paint2_linear_10_8" x1="219.771" y1="0.999569" x2="4.96805e-05" y2="368.117" gradientUnits="userSpaceOnUse">
<stop stop-color="#FF007A"/>
<stop offset="0.802083" stop-color="#0F074A"/>
</linearGradient>
</defs>
</svg>
